<svg id="Logo_2" data-name="Logo 2" xmlns="http://www.w3.org/2000/svg" viewBox="0 0 311.83 164.81"><defs><style>.cls-1{fill:#247dc6;}.cls-2{opacity:0.15;}.cls-3{fill:none;}.cls-4{fill:#fff;}.cls-5{opacity:0.12;}.cls-6{font-size:58px;fill:#3f3f3f;font-family:RobotoSlab-Bold, Roboto Slab;font-weight:700;}.cls-7{letter-spacing:-0.01em;}.cls-8{letter-spacing:-0.05em;}.cls-9{letter-spacing:-0.02em;}.cls-10{letter-spacing:-0.01em;}.cls-11{letter-spacing:-0.03em;}.cls-12{letter-spacing:-0.02em;}</style></defs><title>govicon-logo</title><g id="Logo"><circle id="background" class="cls-1" cx="156.82" cy="52.27" r="47.25"/><path id="shadow" class="cls-2" d="M204.07,52.27a47.1,47.1,0,0,0-3.63-18.2l-31-17.5-1.6,2.19-11.43,2,.41,9.66,24,19.48,2,20.62-6.13.8-48.91,1,5.2,2.9-5.2,2.45,37.45,21.06A47.25,47.25,0,0,0,204.07,52.27Z"/><g id="icon"><path class="cls-3" d="M176.54,69.8a1.92,1.92,0,0,0,1.91-1.91V53.38a1.91,1.91,0,0,0-3.82,0V67.89A1.91,1.91,0,0,0,176.54,69.8Z"/><path class="cls-3" d="M166.69,69.8a1.91,1.91,0,0,0,1.91-1.91V53.38a1.91,1.91,0,1,0-3.82,0V67.89A1.92,1.92,0,0,0,166.69,69.8Z"/><path class="cls-3" d="M158.76,67.89V53.38a1.92,1.92,0,0,0-1.91-1.91h0V69.79h0A1.92,1.92,0,0,0,158.76,67.89Z"/><rect class="cls-4" x="127.81" y="73.78" width="58.02" height="3.91"/><path class="cls-4" d="M182.84,48.5v-3h-6.71a19.9,19.9,0,0,0-17.9-15V23.84c3.73-.8,7.46,3.63,11.19.83v-8.1c-3.74,2.8-7.48-1.66-11.22-.83a1.44,1.44,0,0,0-1.38-1.2,1.47,1.47,0,0,0-1.4,1.52v0h0V30.5a19.92,19.92,0,0,0-17.91,15h-6.7v3h-3V72.35h58V48.5ZM139.06,67.89a1.91,1.91,0,0,1-1.91,1.91h0a1.92,1.92,0,0,1-1.91-1.91V53.38a1.92,1.92,0,0,1,1.91-1.91h0a1.91,1.91,0,0,1,1.91,1.91Zm9.85,0A1.91,1.91,0,0,1,147,69.8h0a1.91,1.91,0,0,1-1.91-1.91V53.38A1.91,1.91,0,0,1,147,51.47h0a1.91,1.91,0,0,1,1.91,1.91Zm9.85,0a1.92,1.92,0,0,1-1.91,1.91h0a1.91,1.91,0,0,1-1.91-1.91V53.38a1.91,1.91,0,0,1,1.91-1.91h0a1.92,1.92,0,0,1,1.91,1.91Zm9.84,0a1.91,1.91,0,0,1-1.91,1.91h0a1.92,1.92,0,0,1-1.91-1.91V53.38a1.92,1.92,0,0,1,1.91-1.91h0a1.91,1.91,0,0,1,1.91,1.91Zm9.85,0a1.92,1.92,0,0,1-1.91,1.91h0a1.91,1.91,0,0,1-1.91-1.91V53.38a1.91,1.91,0,0,1,1.91-1.91h0a1.92,1.92,0,0,1,1.91,1.91Z"/><g class="cls-5"><rect x="156.8" y="73.78" width="29.03" height="3.91"/><path d="M156.85,51.47a1.92,1.92,0,0,1,1.91,1.91V67.89a1.92,1.92,0,0,1-1.91,1.91h0v2.56h29V48.5h-3v-3h-6.71a19.9,19.9,0,0,0-17.9-15V23.84c3.73-.8,7.46,3.63,11.19.83v-8.1c-3.74,2.8-7.48-1.66-11.22-.83a1.44,1.44,0,0,0-1.38-1.2h0V51.48Zm17.78,1.91a1.91,1.91,0,0,1,3.82,0V67.89a1.91,1.91,0,0,1-3.82,0Zm-9.85,0a1.91,1.91,0,1,1,3.82,0V67.89a1.91,1.91,0,1,1-3.82,0Z"/></g></g><text class="cls-6" transform="translate(4.07 156.93)"><tspan class="cls-7">G</tspan><tspan class="cls-8" x="37.89" y="0">O</tspan><tspan x="76.07" y="0">V </tspan><tspan class="cls-9" x="131.86" y="0">I</tspan><tspan class="cls-10" x="150.7" y="0">C</tspan><tspan class="cls-11" x="187.43" y="0">O</tspan><tspan class="cls-12" x="226.94" y="0">N</tspan><tspan x="270.33" y="0">S</tspan></text></g></svg>