<svg id="Logo_2" data-name="Logo 2" xmlns="http://www.w3.org/2000/svg" viewBox="0 0 230.5 117.81"><defs><style>.cls-1{fill:#247dc6;}.cls-2{opacity:0.15;}.cls-3{fill:none;}.cls-4{fill:#fff;}.cls-5{opacity:0.12;}.cls-6{font-size:42px;fill:#3f3f3f;font-family:RobotoSlab-Bold, Roboto Slab;font-weight:700;}.cls-7{letter-spacing:0em;}.cls-8{letter-spacing:-0.04em;}.cls-9{letter-spacing:-0.02em;}.cls-10{letter-spacing:-0.01em;}.cls-11{letter-spacing:-0.02em;}.cls-12{letter-spacing:-0.02em;}</style></defs><title>govicons-logo</title><g id="Logo"><circle id="background" class="cls-1" cx="115.25" cy="38.66" r="34.51"/><path id="shadow" class="cls-2" d="M149.76,38.66a34.38,34.38,0,0,0-2.66-13.29L124.45,12.59l-1.17,1.6-8.35,1.47.3,7.05,17.55,14.23L134.26,52l-4.48.59-35.72.75,3.8,2.11-3.8,1.79,27.35,15.38A34.51,34.51,0,0,0,149.76,38.66Z"/><g id="icon"><path class="cls-3" d="M129.65,51.46A1.39,1.39,0,0,0,131,50.07V39.47a1.4,1.4,0,0,0-2.79,0v10.6A1.4,1.4,0,0,0,129.65,51.46Z"/><path class="cls-3" d="M122.46,51.46a1.39,1.39,0,0,0,1.39-1.39V39.47a1.4,1.4,0,0,0-2.79,0v10.6A1.4,1.4,0,0,0,122.46,51.46Z"/><path class="cls-3" d="M116.66,50.07V39.47a1.39,1.39,0,0,0-1.39-1.39h0V51.46h0A1.39,1.39,0,0,0,116.66,50.07Z"/><rect class="cls-4" x="94.06" y="54.37" width="42.37" height="2.86"/><path class="cls-4" d="M134.25,35.91V33.75h-4.9a14.55,14.55,0,0,0-13.07-11V17.9c2.72-.59,5.44,2.65,8.17.61V12.59c-2.73,2-5.47-1.21-8.2-.61a1,1,0,0,0-1-.87,1.06,1.06,0,0,0-1,1.1v0h0V22.76a14.55,14.55,0,0,0-13.07,11h-4.9v2.16H94.06V53.33h42.38V35.91Zm-32,14.16a1.39,1.39,0,0,1-1.39,1.39h0a1.39,1.39,0,0,1-1.4-1.39V39.47a1.39,1.39,0,0,1,1.4-1.39h0a1.39,1.39,0,0,1,1.39,1.39Zm7.19,0a1.39,1.39,0,0,1-1.39,1.39h0a1.4,1.4,0,0,1-1.4-1.39V39.47a1.4,1.4,0,0,1,1.4-1.39h0a1.39,1.39,0,0,1,1.39,1.39Zm7.19,0a1.39,1.39,0,0,1-1.39,1.39h0a1.4,1.4,0,0,1-1.4-1.39V39.47a1.4,1.4,0,0,1,1.4-1.39h0a1.39,1.39,0,0,1,1.39,1.39Zm7.19,0a1.39,1.39,0,0,1-1.39,1.39h0a1.4,1.4,0,0,1-1.4-1.39V39.47a1.4,1.4,0,0,1,1.4-1.39h0a1.39,1.39,0,0,1,1.39,1.39Zm7.19,0a1.39,1.39,0,0,1-1.39,1.39h0a1.4,1.4,0,0,1-1.4-1.39V39.47a1.4,1.4,0,0,1,1.4-1.39h0A1.39,1.39,0,0,1,131,39.47Z"/><g class="cls-5"><rect x="115.23" y="54.37" width="21.2" height="2.86"/><path d="M115.27,38.08a1.39,1.39,0,0,1,1.39,1.39v10.6a1.39,1.39,0,0,1-1.39,1.39h0v1.87h21.21V35.91h-2.19V33.75h-4.9a14.55,14.55,0,0,0-13.07-11V17.9c2.72-.59,5.44,2.65,8.17.61V12.59c-2.73,2-5.47-1.21-8.2-.61a1,1,0,0,0-1-.87h0v27Zm13,1.39a1.4,1.4,0,0,1,2.79,0v10.6a1.4,1.4,0,0,1-2.79,0Zm-7.19,0a1.4,1.4,0,0,1,2.79,0v10.6a1.4,1.4,0,0,1-2.79,0Z"/></g></g><text class="cls-6" transform="translate(4.07 113.6)"><tspan class="cls-7">G</tspan><tspan class="cls-8" x="27.61" y="0">O</tspan><tspan x="55.47" y="0">V </tspan><tspan class="cls-9" x="95.87" y="0">I</tspan><tspan class="cls-10" x="109.7" y="0">C</tspan><tspan class="cls-11" x="136.48" y="0">O</tspan><tspan class="cls-12" x="165.27" y="0">N</tspan><tspan x="196.89" y="0">S</tspan></text></g></svg>