<?xml version="1.0" encoding="utf-8"?>
<!-- Generator: Adobe Illustrator 22.0.1, SVG Export Plug-In . SVG Version: 6.00 Build 0)  -->
<svg version="1.1" id="Layer_1" xmlns="http://www.w3.org/2000/svg" xmlns:xlink="http://www.w3.org/1999/xlink" x="0px" y="0px"
	 viewBox="0 0 72 56" style="enable-background:new 0 0 72 56;" xml:space="preserve">
<style type="text/css">
	.st0{fill:#2A2A2A;}
</style>
<g>
	<path class="st0" d="M59,30.2c0.1-0.6,0.1-1.2,0.1-1.8c0-0.9,0-1.8-0.1-2.7l5-2.9l-2.3-7L56,16.4c-0.8-1.3-1.7-2.5-2.7-3.7l2.3-5.3
		l-5.9-4.3L45.4,7c-0.7-0.3-1.4-0.6-2.1-0.8c-0.7-0.2-1.5-0.4-2.2-0.6L39.9,0l-3.6,0l-3.7,0l-1.2,5.6C29.9,6,28.4,6.5,27,7.1
		l-4.3-3.8l-5.9,4.3l2.4,5.3c-1,1.1-1.9,2.4-2.7,3.7l-5.7-0.6l-2.3,7l5,2.9c-0.1,1.1,0,0.4-0.1,2l0,0.7c0,0.6,0,1.3,0.1,1.9l-5,2.9
		l2.3,7l5.7-0.6c0.8,1.3,1.7,2.5,2.7,3.7l-2.3,5.3l5.9,4.3l4.3-3.9c0.7,0.3,1.4,0.6,2.1,0.8c0.7,0.2,1.5,0.4,2.2,0.6l1.2,5.6l3.6,0
		l3.7,0l1.2-5.6c1.5-0.3,2.9-0.8,4.3-1.4l4.3,3.8l5.9-4.3l-2.3-5.3c1-1.1,1.9-2.4,2.7-3.7l5.7,0.6l2.3-7L59,30.2z M36.3,49.2
		c-11.7,0-21.2-9.5-21.2-21.2S24.6,6.8,36.3,6.8S57.4,16.3,57.4,28l0,0.4C57.1,39.8,47.7,49.1,36.3,49.2z"/>
	<path class="st0" d="M36.3,8.2c-10.9,0-19.8,8.9-19.8,19.8s8.9,19.8,19.8,19.8S56.1,38.9,56.1,28S47.2,8.2,36.3,8.2z M32.3,44v-5.4
		H34V44H32.3z M38.7,44v-5.4h1.7V44H38.7z M43.5,42.8c-0.5,0.3-1.1,0.5-1.7,0.8v-4.9h1.7V42.8z M37.1,44h-1.7v-5.4h1.7V44z
		 M30.8,43.8c-0.6-0.2-1.1-0.4-1.7-0.7v-4.5h1.7V43.8z M45,41.9v-3.3c0.4-0.1,0.7-0.4,0.7-0.8c0-0.5-0.4-0.8-0.8-0.8H27.6
		c-0.5,0-0.8,0.4-0.8,0.8c0,0.4,0.3,0.7,0.7,0.8v3.7c-4.8-2.9-8-8.2-8-14.3c0-9.2,7.3-16.7,16.4-16.7c9.1,0,16.4,7.5,16.4,16.7
		C52.3,33.8,49.4,38.9,45,41.9z"/>
	<path class="st0" d="M44.1,31.4H28.4c-0.4,0-0.7,0.3-0.7,0.7c0,0.4,0.3,0.7,0.7,0.7v3.6h15.7v-3.6c0.4,0,0.7-0.3,0.7-0.7
		C44.9,31.7,44.5,31.4,44.1,31.4z M30.8,35.8h-1.2v-3.1h1.2V35.8z M33.2,35.8H32v-3.1h1.2V35.8z M35.6,35.8h-1.2v-3.1h1.2V35.8z
		 M38,35.8h-1.2v-3.1H38V35.8z M40.5,35.8h-1.2v-3.1h1.2V35.8z M42.9,35.8h-1.2v-3.1h1.2V35.8z"/>
	<path class="st0" d="M44,30.8c-0.1-0.2-0.5-0.7-1.2-1.5c0,0,0,0,0,0c0-2.4-1.5-4.4-3.7-5.4c-0.1-0.7-0.6-1.4-1.2-1.8v-2.7
		c0-0.8-0.6-1.4-1.3-1.6v-4.6c0-0.2-0.1-0.3-0.3-0.3c-0.2,0-0.3,0.1-0.3,0.3v4.6c-0.8,0.1-1.3,0.8-1.3,1.6v2.7
		c-0.6,0.4-1.1,1-1.2,1.8c-2.2,1-3.7,3-3.7,5.4c0,0,0,0,0,0.1c-0.4,0.4-0.8,0.9-1.2,1.4C28.6,30.8,44,30.8,44,30.8z M40.1,27.9h1.2
		v1.7h-1.2V27.9z M37.9,27.6h1.2v1.9h-1.2V27.6z M36.5,19.4h0.6v2.4h-0.6V19.4z M36.9,27.3v2.2h-1.2v-2.2H36.9z M35.3,19.4H36v2.4
		h-0.6V19.4z M33.4,27.6h1.2v1.9h-1.2V27.6z M31.2,27.9h1.2v1.7h-1.2V27.9z"/>
</g>
</svg>
