<?xml version="1.0" encoding="utf-8"?>
<!-- Generator: Adobe Illustrator 22.0.1, SVG Export Plug-In . SVG Version: 6.00 Build 0)  -->
<svg version="1.1" id="Layer_1" xmlns="http://www.w3.org/2000/svg" xmlns:xlink="http://www.w3.org/1999/xlink" x="0px" y="0px"
	 viewBox="0 0 72 56" style="enable-background:new 0 0 72 56;" xml:space="preserve">
<path d="M12,4h48v40.4c-0.1-1.1-0.2-2.2-0.6-3.2c-0.3-0.8-0.8-1.5-1.4-2.1c-0.7-0.5-1.5-0.8-2.4-0.9c-0.9-0.1-1.9,0-2.7,0.4
	c-0.6,0.3-1.2,0.8-1.6,1.4c-0.4,0.6-0.7,1.3-0.8,2c-0.2,1-0.3,1.9-0.3,2.9c0,1.2,0.1,2.3,0.3,3.5c0.2,0.8,0.5,1.6,1.1,2.3
	c0.4,0.6,1,1,1.7,1.2h-5.5c0-1,0-2,0-3c0.5,0,1.1,0,1.6,0c0-0.9,0-1.9,0-2.8c-0.5,0-1.1,0-1.6,0c0-2.6,0-5.2,0-7.7c-1,0-2,0-3,0
	c-1.8,2.4-3.6,4.8-5.4,7.2c-0.1,0.1-0.2,0.2-0.2,0.4c0,1,0,2,0,3c1.8,0,3.6,0,5.4,0c0,1,0,2,0,3h-9.4c1.2-0.4,2.2-1.2,2.8-2.3
	c0.4-0.7,0.6-1.6,0.6-2.4c0-1-0.3-2.1-0.8-2.9c-0.4-0.6-1-1.1-1.7-1.4c-0.5-0.2-1-0.3-1.5-0.3c-0.6,0-1.2,0.1-1.7,0.4
	c-0.3,0.1-0.5,0.3-0.7,0.5c0-0.2,0-0.4,0.1-0.6c0.1-0.6,0.2-1.2,0.3-1.8c1.8,0,3.5,0,5.3,0c0-0.9,0-1.8,0-2.8c-2.6,0-5.2,0-7.7,0
	c-0.4,2.6-0.9,5.2-1.3,7.8c1,0,2,0,3,0c0.4-0.9,1.6-1.2,2.5-0.8c0.3,0.2,0.6,0.5,0.8,0.8c0.2,0.5,0.3,1.1,0.2,1.7
	c-0.1,0.4-0.3,0.9-0.6,1.2c-0.3,0.3-0.7,0.4-1.2,0.4c-0.5,0-1-0.2-1.3-0.5c-0.3-0.3-0.4-0.7-0.4-1.1c-1.1,0-2.2,0-3.4,0
	c0,0.9,0.2,1.8,0.7,2.5c0.6,0.8,1.4,1.3,2.3,1.6H12V4"/>
<path d="M54.8,41c0.4-0.1,0.8,0,1,0.2c0.3,0.3,0.5,0.7,0.6,1.2c0.2,0.7,0.2,1.4,0.2,2.1c0,0.7,0,1.4,0,2.2c0,0.7-0.1,1.3-0.4,1.9
	c-0.1,0.4-0.4,0.7-0.7,0.9c-0.4,0.2-0.9,0.1-1.2-0.2c-0.3-0.2-0.4-0.6-0.5-1c-0.2-0.7-0.2-1.3-0.2-2c0-0.7,0-1.5,0-2.2
	c0-0.8,0.1-1.5,0.4-2.2C54.1,41.4,54.4,41.1,54.8,41"/>
<path d="M41.7,46.2c0.9-1.2,1.8-2.4,2.8-3.6c0,0.1,0,0.1,0,0.2c0,1.1,0,2.2,0,3.4C43.6,46.2,42.7,46.2,41.7,46.2"/>
<path d="M59.6,48.7c0.3-0.9,0.3-1.8,0.4-2.7v6h-3.1c0.6-0.2,1.1-0.6,1.6-1C59,50.3,59.4,49.6,59.6,48.7"/>
</svg>
