<svg id="Layer_1" data-name="Layer 1" xmlns="http://www.w3.org/2000/svg" viewBox="0 0 72 56"><title>ambulance</title><path d="M62.44,36.13V13.84H49.35v-.43H44.29v.43H33s-4.66-.55-4.66,2.56H16.68a4.63,4.63,0,0,0-4.29,3.19l-3,10v6.94S8,36.86,8,37.77v1.92h5.55a5.87,5.87,0,0,1,1.71-4,5.85,5.85,0,0,1,8.27,0,5.87,5.87,0,0,1,1.71,4H46.52A5.85,5.85,0,0,1,52.36,34a5.74,5.74,0,0,1,2.28.46,5.86,5.86,0,0,1,3.56,5.22H64v-2A1.38,1.38,0,0,0,62.44,36.13Zm-36.7-8.38c0,1.64-2.33,1.32-2.33,1.32H11.54l2.32-7.8c.6-1.9,3.25-1.81,3.25-1.81h8.63v8.29Zm27.84-1.27H48.42v5.16H45.23V26.48H40.07V23.29h5.16V18.13h3.19v5.16h5.16v3.19Z"/><path d="M46.86,13.1h1.61v-.3h-.25s.05-1.89-1.16-1.89h-.48c-1.2,0-1.15,1.89-1.15,1.89h-.25v.3h1.68Z"/><path d="M19.4,34.62a5.24,5.24,0,0,0-5.24,5.07v.16a5.24,5.24,0,1,0,10.47,0v-.16A5.24,5.24,0,0,0,19.4,34.62Z"/><path d="M52.36,34.62a5.24,5.24,0,0,0-5.23,5.07v.16a5.24,5.24,0,1,0,10.47,0v-.16A5.25,5.25,0,0,0,52.36,34.62Z"/></svg>