<svg id="Layer_2" data-name="Layer 2" xmlns="http://www.w3.org/2000/svg" viewBox="0 0 47.6 47"><path d="M45.55,8.31a3.32,3.32,0,1,1,4.22,3.2v8.55H48V11.51A3.36,3.36,0,0,1,45.55,8.31Z" transform="translate(-4.57 -5)"/><path d="M35.31,7.47v8.68C41,18.62,45,23.86,45,30c0,8.43-7.6,13.25-16.88,13.25S11.2,38.38,11.2,30c0-6.09,4-11.33,9.64-13.8V7.47c-7.77,3-12,11-12,20.31,0,12,8.62,18.8,19.28,18.8s19.29-6.81,19.29-18.8C47.36,18.44,43.08,10.48,35.31,7.47Z" transform="translate(-4.57 -5)"/><path d="M34.1,15.67V7.05a21.51,21.51,0,0,0-6-.91,19.52,19.52,0,0,0-6,.91v8.62a18.14,18.14,0,0,1,12.05,0Z" transform="translate(-4.57 -5)"/><path d="M24.4,17.83a14.36,14.36,0,0,0-8.92,6.93.6.6,0,0,0,.36.85l2.65.84a.66.66,0,0,0,.73-.3,9.9,9.9,0,0,1,6.2-4.94.66.66,0,0,0,.43-.72l-.67-2.23A.59.59,0,0,0,24.4,17.83Z" transform="translate(-4.57 -5)"/><path d="M4.57,30.31v1.2a3,3,0,0,0,3,3h1a19.61,19.61,0,0,1-.84-4.22Z" transform="translate(-4.57 -5)"/><path d="M7.59,27.78a28.48,28.48,0,0,1,.72-6.51H7.59a3,3,0,0,0-3,3V29.1h3Z" transform="translate(-4.57 -5)"/><path d="M47.6,34.53h1a3,3,0,0,0,3-3v-1.2H48.44A19.61,19.61,0,0,1,47.6,34.53Z" transform="translate(-4.57 -5)"/><path d="M48.56,21.27h-.72a28.48,28.48,0,0,1,.72,6.51,10.17,10.17,0,0,1-.06,1.32h3V24.28A2.89,2.89,0,0,0,48.56,21.27Z" transform="translate(-4.57 -5)"/><path d="M42.42,43.44a21.89,21.89,0,0,1-14.35,4.94,21.89,21.89,0,0,1-14.34-4.94l-.84.85a.57.57,0,0,0-.06.78c3.56,4.52,9,6.93,15.24,6.93s11.69-2.41,15.25-6.93a.56.56,0,0,0-.06-.78Z" transform="translate(-4.57 -5)"/></svg>