<svg id="Layer_2" data-name="Layer 2" xmlns="http://www.w3.org/2000/svg" viewBox="0 0 45.46 48.25"><path d="M8.54,49.12" transform="translate(-5.54 -4.28)"/><path id="Shape" d="M5.71,50a1.2,1.2,0,0,0,2.2.6,22.27,22.27,0,0,1,5.85-6,8.53,8.53,0,0,0,2.15,5A1.2,1.2,0,0,0,18,49a10.53,10.53,0,0,1,3.89-5.75c.8.67,2.53,2.76,3.21,8.17a1.2,1.2,0,0,0,1.8.91c1.54-.91,5.05-3.22,6-6.64a23.81,23.81,0,0,1,2.41,3.49,1.19,1.19,0,0,0,1.13.62,1.2,1.2,0,0,0,1-.75,17.57,17.57,0,0,0,1.28-5,33.72,33.72,0,0,0,4.37.58A1.21,1.21,0,0,0,44,42.56c-2.58-2.1-7.11-8.53-6.86-17.92,4.44,0,5.75,1.35,7.23,1.35a3.85,3.85,0,0,0,2.52-1.2,4.56,4.56,0,0,1,.7,2.71.8.8,0,0,0,.54.86.81.81,0,0,0,1-.36c3.68-6.43,1.23-10.07-.94-12.23-1.32-1.32-3.59-2-5.63-2.32-.7-2.74-3.51-9.17-14.23-9.17C16.52,4.28,9.23,12.9,7.89,14.62a1,1,0,0,0,1,1.61l.67-.13a9.94,9.94,0,0,0-1.94,2.78,1,1,0,0,0,1.17,1.37L10,19.94A70,70,0,0,0,5.71,50Z" transform="translate(-5.54 -4.28)"/></svg>