<svg id="Layer_1" data-name="Layer 1" xmlns="http://www.w3.org/2000/svg" viewBox="0 0 72 56"><title>biohazard</title><path d="M50.14,29.62a9,9,0,0,0-2.79.58c0,.24,0,.48,0,.73a11.21,11.21,0,0,1-5.76,9.78,9.15,9.15,0,0,0,.61,1.83A9.44,9.44,0,0,0,43.07,44,14.77,14.77,0,0,0,51,30.93c0-.44,0-.87-.06-1.3l-.35,0Z"/><path d="M30.76,40.71A11.2,11.2,0,0,1,25,30.93c0-.25,0-.49,0-.73a9,9,0,0,0-2.79-.58h-.41l-.34,0c0,.43-.07.86-.07,1.3A14.77,14.77,0,0,0,29.31,44a10,10,0,0,0,.84-1.45A9.83,9.83,0,0,0,30.76,40.71Z"/><path d="M30.19,21.49a11.11,11.11,0,0,1,12,0,9.08,9.08,0,0,0,1.86-2.22c.12-.2.22-.42.32-.63a14.73,14.73,0,0,0-16.36,0c.1.22.2.43.31.63A9.12,9.12,0,0,0,30.19,21.49Z"/><path d="M32.71,30.93a3.46,3.46,0,0,1,2.48-3.31V25.7H35a11.09,11.09,0,0,1-6.35-3,11.19,11.19,0,0,1-2-2.45c-.07-.12-.13-.26-.2-.39A11.06,11.06,0,0,1,32.48,4.15V2.08a16.69,16.69,0,0,0-13,16.26,16.4,16.4,0,0,0,.25,2.73,16.36,16.36,0,0,0-3,1.36A16.69,16.69,0,0,0,9.12,41.81l1.79-1A11.06,11.06,0,0,1,21.8,27.65c.17,0,.35,0,.52,0a11.24,11.24,0,0,1,8.85,5.07l.11.16,1.6-.93A3.39,3.39,0,0,1,32.71,30.93Z"/><path d="M55.67,22.43a16.71,16.71,0,0,0-3-1.37,16.19,16.19,0,0,0,.24-2.72,16.7,16.7,0,0,0-13-16.27V4.15a11.12,11.12,0,0,1,7.42,10.48A10.93,10.93,0,0,1,46,19.88c-.07.13-.12.27-.2.4a11.09,11.09,0,0,1-2,2.44,11,11,0,0,1-6.36,3l-.24,0v1.91a3.47,3.47,0,0,1,2.48,3.32,3.32,3.32,0,0,1-.16,1l1.6.93.1-.16a11.24,11.24,0,0,1,8.85-5.07c.18,0,.36,0,.53,0A11,11,0,0,1,61.46,40.77l1.8,1A16.7,16.7,0,0,0,55.67,22.43Z"/><path d="M38.39,33.59a3.37,3.37,0,0,1-4.41,0l-1.81,1a11.07,11.07,0,0,1,.43,6.88A11.25,11.25,0,0,1,32,43.37a11.75,11.75,0,0,1-.79,1.43,11.09,11.09,0,0,1-16.55,2.39l-1.79,1A16.68,16.68,0,0,0,33.4,51.34a16.3,16.3,0,0,0,2.79-2,16.65,16.65,0,0,0,23.35-1.09l-1.79-1A11.11,11.11,0,0,1,45,48.38a11,11,0,0,1-3.76-3.58,10.54,10.54,0,0,1-.79-1.43,11.25,11.25,0,0,1-.64-1.85,11,11,0,0,1,.43-6.88Z"/></svg>