<svg id="Layer_1" data-name="Layer 1" xmlns="http://www.w3.org/2000/svg" viewBox="0 0 72 56"><title>capitol</title><path d="M49.06,30.05A101.71,101.71,0,0,0,36,29.26a102.35,102.35,0,0,0-13.06.79,2,2,0,0,0-1.45,1.81v6c.41-.05,1.16-.1,2.2-.16V33a1.52,1.52,0,0,1,1.44-1.44,1.25,1.25,0,0,1,1.39,1.23v4.67l4.39-.15v-4.9a1.38,1.38,0,0,1,1.45-1.32,1.33,1.33,0,0,1,1.44,1.27v4.89h4.4V32.39a1.33,1.33,0,0,1,1.44-1.27,1.45,1.45,0,0,1,1.45,1.32v4.9l4.39.15V32.82a1.25,1.25,0,0,1,1.39-1.23A1.52,1.52,0,0,1,48.31,33v4.62c1,.06,1.79.11,2.2.16v-6A1.8,1.8,0,0,0,49.06,30.05Z"/><path d="M36,38.61a142.46,142.46,0,0,0-20,1.28V52.22l1.5,0c10.23-.32,17.4-.38,18.5-.38s8.5.06,18.67.38l1.33,0V39.89A142.46,142.46,0,0,0,36,38.61ZM22.94,48.39a1.6,1.6,0,0,1-1.45,1.44,1.21,1.21,0,0,1-1.38-1.17V42.92a1.53,1.53,0,0,1,1.38-1.44,1.3,1.3,0,0,1,1.45,1.17ZM30.16,48a1.49,1.49,0,0,1-1.44,1.38,1.3,1.3,0,0,1-1.45-1.22V42.38A1.5,1.5,0,0,1,28.72,41a1.29,1.29,0,0,1,1.44,1.23Zm7.28-.11a1.35,1.35,0,0,1-1.38,1.28,1.38,1.38,0,0,1-1.45-1.28V42.12a1.42,1.42,0,0,1,1.45-1.33,1.32,1.32,0,0,1,1.38,1.33Zm7.29.27a1.3,1.3,0,0,1-1.45,1.22A1.46,1.46,0,0,1,41.84,48V42.23A1.29,1.29,0,0,1,43.28,41a1.47,1.47,0,0,1,1.45,1.38Zm7.16.53a1.24,1.24,0,0,1-1.38,1.17,1.5,1.5,0,0,1-1.39-1.44V42.65a1.21,1.21,0,0,1,1.39-1.17,1.53,1.53,0,0,1,1.38,1.44Z"/><path d="M49,28.56A12.52,12.52,0,0,0,36,16.23,12.45,12.45,0,0,0,23.05,28.56,104,104,0,0,1,49,28.56Z"/><path d="M40.16,14.11c0-1.39-1.34-5.47-2.64-5.7h0A10.11,10.11,0,0,0,36,3.78a10.57,10.57,0,0,0-1.45,4.65h0C32.7,8.69,32,12.78,32,14.11a6.09,6.09,0,0,1-.23,1.33,15.91,15.91,0,0,1,4.28-.54,18.13,18.13,0,0,1,4.27.54A6.29,6.29,0,0,1,40.16,14.11Z"/></svg>