<svg id="Layer_1" data-name="Layer 1" xmlns="http://www.w3.org/2000/svg" viewBox="0 0 72 56"><title>file-contract-o</title><path d="M36.57,36.76H19.67a1.08,1.08,0,0,0,0,2.16H35.73A3.41,3.41,0,0,1,36.57,36.76Z"/><path d="M44.16,22.6H19.67a1.08,1.08,0,1,0,0,2.16H44.16a1.08,1.08,0,1,0,0-2.16Z"/><path d="M50.21,37.92V52.57a.55.55,0,0,1-.55.55H15.13a.55.55,0,0,1-.55-.55V3.43a.55.55,0,0,1,.55-.54H41.24v8.35a1.45,1.45,0,0,0,1.45,1.44h7.52l0,3c.07,0,.61-1,.69-1,.71-.95,1-.85,1.48-1,.09,0,.6,0,.69,0V10.62L43.32,0H15.13A3.44,3.44,0,0,0,11.7,3.43V52.57A3.44,3.44,0,0,0,15.13,56H49.66a3.44,3.44,0,0,0,3.43-3.43V33.26c-.32.44-.63.9-.92,1.37A16.16,16.16,0,0,0,50.21,37.92ZM44.13,5.14l4.28,4.65H44.13Z"/><path d="M41.29,29.62H19.67a1.08,1.08,0,0,0,0,2.16H39.86Z"/><path d="M27,48.83c.07.44.59.58.93.72s.72-.12,1-.26c1.69-.82,4,.15,5.78.15a.83.83,0,0,0,0-1.66c-2.11,0-3.86-.54-6-.19a1.06,1.06,0,0,0-.17-.51,1.32,1.32,0,0,0-1.39-.77,1.28,1.28,0,0,0-.11-.24.8.8,0,0,0-.52-.37,3.43,3.43,0,0,0,.58-3,.82.82,0,0,0-.72-.41c-1.1,0-2.05,1.12-2.77,1.82a51.85,51.85,0,0,0-4.86,5.7c-.66.84.79,1.67,1.43.83a60.39,60.39,0,0,1,4.3-5c-.37.61-.76,1.21-1.17,1.78-.59.91.81,1.69,1.43.84a1.64,1.64,0,0,1,.53-.52l-.12.3h0l-.09.2c-.37.93,1,1.35,1.52.64a4.25,4.25,0,0,0,.35-.58A3.21,3.21,0,0,0,27,48.83Z"/><path d="M60.29,20.16c0-.2-.4-2-3.07-3.73s-4.44-1.37-4.64-1.32a1.1,1.1,0,0,0-.64.46L37,38.29a1.11,1.11,0,0,0-.17.47l-1,8.45a1.1,1.1,0,0,0,.48,1,1.11,1.11,0,0,0,1.14,0L44.85,44a1,1,0,0,0,.36-.34L60.12,20.93A1.09,1.09,0,0,0,60.29,20.16ZM40.44,44.68a8.25,8.25,0,0,0-1.16-.89A11.1,11.1,0,0,0,38,43.07l.3-2.53a8,8,0,0,1,4.35,2.85Z"/></svg>