<svg id="Layer_1" data-name="Layer 1" xmlns="http://www.w3.org/2000/svg" viewBox="0 0 72 56"><defs><style>.cls-1{stroke:#000;stroke-miterlimit:10;}</style></defs><title>file-text</title><polygon class="cls-1" points="48.77 8.19 53.43 8.19 48.77 3.12 48.77 8.19"/><path class="cls-1" d="M45.63,9.76V.67H17.22a.6.6,0,0,0-.6.6V54.73a.6.6,0,0,0,.6.6H54.78a.6.6,0,0,0,.6-.6V11.33H47.2A1.57,1.57,0,0,1,45.63,9.76ZM48.8,39.89H22.15a1.18,1.18,0,0,1,0-2.36H48.8a1.18,1.18,0,1,1,0,2.36Zm0-7.78H22.15a1.18,1.18,0,0,1,0-2.35H48.8a1.18,1.18,0,1,1,0,2.35Zm0-7.64H22.15a1.18,1.18,0,0,1,0-2.35H48.8a1.18,1.18,0,1,1,0,2.35Z"/></svg>