<svg id="Layer_1" data-name="Layer 1" xmlns="http://www.w3.org/2000/svg" viewBox="0 0 72 56"><title>file-excel-o</title><path d="M46.92,0H18.74A3.44,3.44,0,0,0,15.3,3.43V52.57A3.44,3.44,0,0,0,18.74,56H53.26a3.44,3.44,0,0,0,3.44-3.43V10.62Zm.81,5.14L52,9.79H47.73Zm6.08,47.43a.55.55,0,0,1-.55.55H18.74a.55.55,0,0,1-.55-.55V3.43a.54.54,0,0,1,.55-.54H44.85v8.35a1.45,1.45,0,0,0,1.44,1.44h7.52Z"/><path d="M25,48.69V45.27h3l4.91-6.94-4.91-6.44H25.15V28.48H35.73v3.41H33.79l2.84,3.56,2.57-3.56H37.37V28.48h9.11v3.41H43.67l-4.79,6.64,5.29,6.74h2.9v3.42H36.21V45.27h2l-3-4-2.89,4h2.07v3.42Z"/></svg>