<svg id="Layer_1" data-name="Layer 1" xmlns="http://www.w3.org/2000/svg" viewBox="0 0 72 56"><title>fingerprint</title><path d="M46.5,0h-21A10.49,10.49,0,0,0,15,10.5v35A10.49,10.49,0,0,0,25.5,56h21A10.49,10.49,0,0,0,57,45.5v-35A10.49,10.49,0,0,0,46.5,0ZM25.57,9.31A18.21,18.21,0,0,1,36.49,6a16.58,16.58,0,0,1,10.5,4,1,1,0,0,1,.07,1.47,1.12,1.12,0,0,1-.77.35.9.9,0,0,1-.7-.28A14.59,14.59,0,0,0,36.42,8a16,16,0,0,0-9.59,2.94,1.08,1.08,0,0,1-1.47-.14A1.18,1.18,0,0,1,25.57,9.31Zm-3.29,7.84A16.86,16.86,0,0,1,36.84,10c8,.14,13.23,7.49,13.79,8.33a1,1,0,0,1-.28,1.47.93.93,0,0,1-.56.21.85.85,0,0,1-.84-.49c-.21-.28-5-7.28-12.11-7.42A14.61,14.61,0,0,0,24,18.34a1.06,1.06,0,0,1-1.75-1.19Zm6.86,16.38a10.47,10.47,0,0,0,6.44,5.32,11.36,11.36,0,0,0,10.15-1.61,1,1,0,1,1,1.33,1.61A12.59,12.59,0,0,1,39,41.51,13.63,13.63,0,0,1,35,40.88a12.23,12.23,0,0,1-7.7-6.37c-.42-.91-2.52-5.81.14-10.71a12.35,12.35,0,0,1,2.45-3.08,1,1,0,1,1,1.4,1.54,12.05,12.05,0,0,0-2,2.59C27,28.84,28.93,33.11,29.14,33.53ZM38,37c-4.34-.49-7-3-7.7-7.28a6.61,6.61,0,0,1,1.33-5,5.75,5.75,0,0,1,3.92-2.45,7.09,7.09,0,0,1,2.1.14c2.52.77,4.13,2.24,4.34,4.06v.07c.07.84.42,3.5-1.89,4-1.19.28-2.1-.77-2.8-1.61-.21-.21-.42-.49-.63-.7a3,3,0,0,0,.07,1.89c.56,1.12,2.52,1.4,3.92,1a4.27,4.27,0,0,0,1.89-1.33,5.25,5.25,0,0,0,.77-4.27,6.81,6.81,0,0,0-3.15-4.06,7.77,7.77,0,0,0-4.41-1.19,7.45,7.45,0,0,0-2.45.63A1,1,0,1,1,32.36,19a8.79,8.79,0,0,1,3.29-.84,9.09,9.09,0,0,1,5.6,1.54,9,9,0,0,1,4.06,5.39,7.24,7.24,0,0,1-1.12,6,6.3,6.3,0,0,1-2.87,2.1c-2.24.7-5.32.14-6.44-2a4.6,4.6,0,0,1-.14-3.71,2.09,2.09,0,0,1,1.33-1.33c1.19-.35,2.1.63,2.8,1.47a5.58,5.58,0,0,0,.91.91c.21-.14.35-.49.21-1.68v-.14c-.14-1.4-2.17-2.1-2.8-2.24a2.57,2.57,0,0,0-1.26-.07A4.09,4.09,0,0,0,33.48,26a4.58,4.58,0,0,0-1,3.36,6.05,6.05,0,0,0,5.88,5.53c3.43.35,7.77-1.89,8.61-4.55,1.33-4.2.63-6.65-1.33-9.87-1.75-2.94-5.32-4.62-9.8-4.62h-.07a10.58,10.58,0,0,0-7.07,2.66,12.51,12.51,0,0,0-4.13,7.84,15.94,15.94,0,0,0,2.73,11.48,1.22,1.22,0,0,1-.14,1.68,1.31,1.31,0,0,1-1.54-.42,18,18,0,0,1-3.15-13,14.91,14.91,0,0,1,4.83-9.17,12.64,12.64,0,0,1,8.54-3.15c5.25.07,9.52,2.1,11.62,5.67S50.56,26.11,49,31.08C47.55,34.93,42,37.45,38,37ZM19.13,30.52a12.82,12.82,0,0,1-.35-4.9,13.07,13.07,0,0,1,1.82-5.25,1.07,1.07,0,1,1,1.82,1.12,11.08,11.08,0,0,0-1.54,4.41A11.77,11.77,0,0,0,21.16,30a1,1,0,0,1-.77,1.26c-.07,0-.21.07-.28.07A1.2,1.2,0,0,1,19.13,30.52Zm9.52,15.82a1,1,0,0,1-.84.42,1.13,1.13,0,0,1-.63-.21,18.45,18.45,0,0,1-4-4,18.24,18.24,0,0,1-3.29-8.47,1.06,1.06,0,1,1,2.1-.28,15.92,15.92,0,0,0,2.94,7.49,18,18,0,0,0,3.57,3.5A1.26,1.26,0,0,1,28.65,46.34Zm16.87,1.75a17.91,17.91,0,0,1-8,2h-1A16.83,16.83,0,0,1,31,48.72a1.07,1.07,0,0,1,.84-2A16.29,16.29,0,0,0,36.63,48a15.39,15.39,0,0,0,8-1.68,1,1,0,0,1,1.4.49A1,1,0,0,1,45.52,48.09ZM49,42.84a20.41,20.41,0,0,1-10.22,3,13.49,13.49,0,0,1-1.68-.07,17.56,17.56,0,0,1-9-3.64,1.05,1.05,0,1,1,1.26-1.68,15.76,15.76,0,0,0,7.91,3.22A18,18,0,0,0,47.9,41.09,1,1,0,1,1,49,42.84ZM53.22,29a16.67,16.67,0,0,1-2.17,6.51,1.09,1.09,0,0,1-.91.56,1,1,0,0,1-.49-.14,1,1,0,0,1-.42-1.4,14,14,0,0,0,1.89-5.67,14,14,0,0,0-.28-5.11,1,1,0,1,1,2-.49A15.72,15.72,0,0,1,53.22,29Z"/></svg>