<svg id="Layer_1" data-name="Layer 1" xmlns="http://www.w3.org/2000/svg" viewBox="0 0 72 56"><defs><style>.cls-1{fill:#0d0d0d;}</style></defs><title>gun</title><path class="cls-1" d="M12.31,45.37a1.63,1.63,0,0,1,.39-2.31l10.28-8c-.85-1.23.15-1.65.15-1.65l-.83-2.2c-.74-1.53.7-3,.7-3l8.83-6.51a2.66,2.66,0,0,1,3.76.72l1.78-1a1.45,1.45,0,0,1,.52-2l9.44-7.48V8.5c.11-1.88,1.1-1.1,1.1-1.1l3.15,3.1s6.83-5.79,7.31-6.22.91.31.91.31.4.47.15.75-6.56,6-6.56,6l.18,1.53-.57.63-1-1-1.71,1.63a2.53,2.53,0,0,1-.61,2.38l-7.4,7.77c-1.35,1.13-2,.31-2,.31L38.78,26.2c-.63.94,2.15,3.31,2.15,3.31l-.25.68A27.55,27.55,0,0,0,48.2,35.6l-3.32,5.07A20.41,20.41,0,0,1,38,35.92L35.17,37.5c-2.52,1.87-2.06,3.09-2.06,3.09L33.58,44c1.7.79.31,1.53.31,1.53l-2.63,1.2c-1.74,1.1-1.7-.29-1.7-.29l-.22-6.7c-1.06-2.41-2.64-1.22-2.64-1.22a31.25,31.25,0,0,0-5,5.61L21.17,50c-1,2.87-2.74,1.52-2.74,1.52l-4.32-4.34Z"/></svg>