<svg id="Layer_1" data-name="Layer 1" xmlns="http://www.w3.org/2000/svg" viewBox="0 0 72 56"><title>lincoln-memorial</title><rect x="11.42" y="13.39" width="49.19" height="0.79"/><rect x="11.42" y="14.76" width="49.19" height="4.98"/><rect x="4.95" y="20.32" width="62.1" height="0.76"/><rect x="4.95" y="21.65" width="62.1" height="0.76"/><rect x="4.95" y="37.17" width="62.1" height="0.76"/><rect x="2.76" y="38.39" width="66.5" height="0.76"/><rect y="39.6" width="72" height="3.01"/><path d="M8.38,23.41A.41.41,0,0,0,8,23H5.65a.43.43,0,1,0,0,.85H6c-.12,1.49-.48,6.65-.39,12.84H8.05c.06-6.19-.28-11.35-.4-12.84H8A.41.41,0,0,0,8.38,23.41Z"/><path d="M13.7,23.41a.42.42,0,0,0-.43-.42H10.93a.43.43,0,0,0,0,.85h.34c-.13,1.49-.49,6.65-.4,12.84h2.49c.06-6.19-.27-11.35-.39-12.84h.33A.41.41,0,0,0,13.7,23.41Z"/><path d="M19,23.41a.41.41,0,0,0-.43-.42H16.25a.43.43,0,1,0,0,.85h.33c-.12,1.49-.49,6.65-.39,12.84h2.49c.06-6.19-.28-11.35-.4-12.84h.33A.41.41,0,0,0,19,23.41Z"/><path d="M24.32,23.41A.41.41,0,0,0,23.9,23H21.56a.43.43,0,0,0,0,.85h.33c-.12,1.49-.48,6.65-.39,12.84H24c.06-6.19-.27-11.35-.39-12.84h.33A.41.41,0,0,0,24.32,23.41Z"/><path d="M29.64,23.41a.41.41,0,0,0-.43-.42H26.87a.43.43,0,0,0,0,.85h.34c-.12,1.49-.49,6.65-.4,12.84H29.3c.06-6.19-.27-11.35-.39-12.84h.33A.41.41,0,0,0,29.64,23.41Z"/><path d="M35,23.41a.41.41,0,0,0-.42-.42H32.19a.43.43,0,1,0,0,.85h.33c-.12,1.49-.48,6.65-.39,12.84h2.49c.06-6.19-.28-11.35-.4-12.84h.34A.41.41,0,0,0,35,23.41Z"/><path d="M40.27,23.41a.42.42,0,0,0-.43-.42H37.5a.43.43,0,0,0,0,.85h.34c-.12,1.49-.49,6.65-.4,12.84h2.49c.06-6.19-.27-11.35-.39-12.84h.33A.41.41,0,0,0,40.27,23.41Z"/><path d="M45.58,23.41a.41.41,0,0,0-.42-.42H42.82a.43.43,0,1,0,0,.85h.33c-.12,1.49-.48,6.65-.39,12.84h2.49c.06-6.19-.28-11.35-.4-12.84h.34A.43.43,0,0,0,45.58,23.41Z"/><path d="M50.89,23.41a.41.41,0,0,0-.42-.42H48.13a.43.43,0,0,0,0,.85h.34c-.13,1.49-.49,6.65-.4,12.84h2.49c.06-6.19-.27-11.35-.39-12.84h.33A.43.43,0,0,0,50.89,23.41Z"/><path d="M56.21,23.41a.41.41,0,0,0-.43-.42H53.45a.43.43,0,1,0,0,.85h.33c-.12,1.49-.49,6.65-.39,12.84h2.49c.06-6.19-.28-11.35-.4-12.84h.33A.43.43,0,0,0,56.21,23.41Z"/><path d="M61.49,23.41a.41.41,0,0,0-.42-.42H58.73a.43.43,0,1,0,0,.85h.33c-.12,1.49-.48,6.65-.39,12.84h2.49c.06-6.19-.27-11.35-.4-12.84h.34A.41.41,0,0,0,61.49,23.41Z"/><path d="M66.81,23.41a.41.41,0,0,0-.43-.42H64a.43.43,0,0,0,0,.85h.34c-.12,1.49-.49,6.65-.4,12.84h2.49c.06-6.19-.27-11.35-.39-12.84h.33A.41.41,0,0,0,66.81,23.41Z"/></svg>