<svg id="Layer_1" data-name="Layer 1" xmlns="http://www.w3.org/2000/svg" viewBox="0 0 72 56"><title>medkit</title><path d="M63.93,47.82V22.53H8.07V47.82a2.09,2.09,0,0,0,2.09,2.09H61.84A2.09,2.09,0,0,0,63.93,47.82ZM45,37.06a2.09,2.09,0,0,1-2.09,2.09h-4v4.07a2.09,2.09,0,0,1-2.09,2.09H35.16a2.09,2.09,0,0,1-2.09-2.09V39.15h-4A2.09,2.09,0,0,1,27,37.06V35.39a2.1,2.1,0,0,1,2.09-2.09h4v-4a2.09,2.09,0,0,1,2.09-2.09h1.68a2.09,2.09,0,0,1,2.09,2.09v4h4A2.09,2.09,0,0,1,45,35.39Z"/><path d="M63.93,15.64a2.08,2.08,0,0,0-2.09-2.09H50.54V8.18a2.09,2.09,0,0,0-2.08-2.09H23.55a2.09,2.09,0,0,0-2.09,2.09v5.37H10.16a2.08,2.08,0,0,0-2.09,2.09v4.45H63.93V15.64ZM46.37,13.55H25.64V10.27H46.36v3.28Z"/></svg>