<svg id="Layer_1" data-name="Layer 1" xmlns="http://www.w3.org/2000/svg" viewBox="0 0 72 56"><title>metro-front</title><path d="M48.89,48.14h1.27a6,6,0,0,0,6-6v-36a6,6,0,0,0-6-6H21.84a6,6,0,0,0-6,6v36a6,6,0,0,0,6,6h1.27L14.55,55.8H20l2.74-2.45H49.31l2.74,2.45h5.4ZM48,44.45a3,3,0,1,1,3-3A2.95,2.95,0,0,1,48,44.45Zm-18.72-42H42.71a1.65,1.65,0,0,1,0,3.3H29.29a1.65,1.65,0,1,1,0-3.3ZM18.84,26.25V11.15a3,3,0,0,1,3-3H50.16a3,3,0,0,1,3,3v15.1a3,3,0,0,1-3,3H21.84A3,3,0,0,1,18.84,26.25ZM21,41.5a3,3,0,1,1,2.95,3A2.95,2.95,0,0,1,21,41.5Zm5.67,8.25,1.78-1.61H43.58l1.71,1.61Z"/></svg>