<svg id="Layer_1" data-name="Layer 1" xmlns="http://www.w3.org/2000/svg" viewBox="0 0 72 56"><title>nuclear_plant</title><path d="M40.43,20a1.11,1.11,0,0,0-.23-.81.9.9,0,0,0-.71-.34H22a1,1,0,0,0-.71.34A1.12,1.12,0,0,0,21,20c0,.16,1.75,16.15-8.43,30a1.1,1.1,0,0,0-.12,1.08.94.94,0,0,0,.85.58H48.12a.94.94,0,0,0,.85-.58,1.08,1.08,0,0,0-.12-1.08C38.7,36.21,40.41,20.2,40.43,20Z"/><path d="M57.85,50.05c-7.18-9.78-6-21.69-6-21.8a1.06,1.06,0,0,0-.23-.81A.9.9,0,0,0,51,27.1H42.41a43.53,43.53,0,0,0,7.92,21.67,3.31,3.31,0,0,1,.43,2.95h6.36a.93.93,0,0,0,.84-.58,1.07,1.07,0,0,0-.11-1.09Z"/><path d="M31.29,15.68a2.86,2.86,0,0,0,1.92-.75,4,4,0,0,0,2.37.75A4.12,4.12,0,0,0,39,14,5.71,5.71,0,1,0,37.8,7.79a4,4,0,0,0-2.22-.65,4.2,4.2,0,0,0-4,2.87.77.77,0,0,0-.26,0,2.86,2.86,0,0,0-2.86,2.84A2.82,2.82,0,0,0,31.29,15.68Z"/><path d="M45.88,24.66a2.26,2.26,0,0,0,1.51-.59,3.15,3.15,0,0,0,1.87.59,3.25,3.25,0,0,0,2.67-1.35A4.5,4.5,0,1,0,51,18.44a3.13,3.13,0,0,0-1.75-.51,3.3,3.3,0,0,0-3.16,2.26.71.71,0,0,0-.21,0,2.25,2.25,0,0,0,0,4.49Z"/></svg>