<svg id="Layer_1" data-name="Layer 1" xmlns="http://www.w3.org/2000/svg" viewBox="0 0 72 56"><title>pallet</title><path d="M59.65,37.79c.19,0,.35-.28.35-.63V33.89c0-.34-.16-.62-.35-.62H12.35c-.19,0-.35.28-.35.62v3.27c0,.35.16.63.35.63h3.13v5.88H12.35c-.19,0-.35.28-.35.63v3.27c0,.35.16.62.35.62h47.3c.19,0,.35-.27.35-.62V44.3c0-.35-.16-.63-.35-.63H56.52V37.79Zm-38.45,0H33.05v5.88H21.2Zm29.6,5.88h-12V37.79h12Z"/><path d="M55.55,7.81H47.94v3.46a.58.58,0,0,1-.58.57H45.5a.57.57,0,0,1-.57-.57V7.81H37.31a1.72,1.72,0,0,0-1.72,1.72V27.77a1.73,1.73,0,0,0,1.72,1.73H55.55a1.74,1.74,0,0,0,1.73-1.73V9.53A1.73,1.73,0,0,0,55.55,7.81ZM53.92,23.22a.62.62,0,0,1-.47.21.61.61,0,0,1-.42-.16l-.45-.41v2.83a.64.64,0,0,1-.64.63.63.63,0,0,1-.63-.63V22.86l-.45.41a.64.64,0,0,1-.9-.05.63.63,0,0,1,0-.89s1-.87,1.44-1.31a.75.75,0,0,1,.49-.23.73.73,0,0,1,.49.23l1.45,1.31A.62.62,0,0,1,53.92,23.22Z"/><path d="M32,7.81H24.35v3.46a.58.58,0,0,1-.57.57H21.92a.58.58,0,0,1-.58-.57V7.81H13.73A1.72,1.72,0,0,0,12,9.53V27.77a1.73,1.73,0,0,0,1.73,1.73H32a1.73,1.73,0,0,0,1.73-1.73V9.53A1.72,1.72,0,0,0,32,7.81ZM30.34,23.22a.64.64,0,0,1-.47.21.62.62,0,0,1-.43-.16L29,22.86v2.83a.63.63,0,0,1-.63.63.64.64,0,0,1-.64-.63V22.86l-.45.41a.63.63,0,0,1-.89-.05.62.62,0,0,1,0-.89L27.87,21a.73.73,0,0,1,.49-.23.78.78,0,0,1,.49.23c.47.44,1.44,1.31,1.44,1.31A.63.63,0,0,1,30.34,23.22Z"/></svg>