<svg id="Layer_1" data-name="Layer 1" xmlns="http://www.w3.org/2000/svg" viewBox="0 0 72 56"><title>poison</title><path d="M45.47,36.49a8,8,0,0,0,1.22-4.24c0-3.34-1.16-6.18-4.14-7.91a13.2,13.2,0,0,0-11.13-.94A9,9,0,0,0,26.6,36.58a4.29,4.29,0,0,1,.61,1.54,2.66,2.66,0,0,1-.24,1,3.74,3.74,0,0,0-.29,1.21,2.23,2.23,0,0,0,2.26,2c1.44.08,1.74.38,1.83,1.76a.58.58,0,0,0,.38.38,6.75,6.75,0,0,0,1.49.09c.49,0,.72.13.79.62,0,.16.22.4.36.41A8.38,8.38,0,0,0,35,45.53c0-.34,0-.61.06-.91H37c0,.34,0,.63.06.93l1.46.07a3.1,3.1,0,0,0,.09-.36c0-.57.33-.75.9-.7a10.57,10.57,0,0,0,1.37-.07c.32,0,.48-.14.43-.48-.19-1.25.69-1.59,1.59-1.68A4.07,4.07,0,0,0,44.29,42,2,2,0,0,0,45,39a1.44,1.44,0,0,1-.15-1A6.08,6.08,0,0,1,45.47,36.49Zm-12.72,1a3.66,3.66,0,0,1-3.35-.39A2.74,2.74,0,0,1,29.48,33a3,3,0,0,1,1.57-.42,7.78,7.78,0,0,1,2.51.48,1.74,1.74,0,0,1,1.2,2.15A2.64,2.64,0,0,1,32.75,37.52Zm5,3.42A.83.83,0,0,1,36.7,41a1.13,1.13,0,0,0-1.44,0,1.17,1.17,0,0,1-1-.06A1,1,0,0,1,34,40a22,22,0,0,1,1.27-2.52c.1-.17.44-.21.66-.3,0,0,0,.07,0,.11.49-.17.72.13.92.49s.51.9.75,1.36a2.6,2.6,0,0,1,.31.87A1.22,1.22,0,0,1,37.77,40.94Zm5.45-4.57a2.8,2.8,0,0,1-2.67,1.39c-1-.13-2.15-.21-2.79-1.25a4.45,4.45,0,0,1-.57-1.7,1.57,1.57,0,0,1,.92-1.64A5.82,5.82,0,0,1,42,32.71a1.61,1.61,0,0,1,.92.64A2.84,2.84,0,0,1,43.22,36.37Z"/><path d="M48.49,11h0c0-3.54,0-5.59,0-9A2.16,2.16,0,0,0,47.79.26,1.16,1.16,0,0,0,47.06,0h-22a1.29,1.29,0,0,0-.91.33,2.21,2.21,0,0,0-.61,1.74c.06,3.37,0,5.42,0,9h0a9.16,9.16,0,0,0-9.16,9.16V46.84A9.16,9.16,0,0,0,23.51,56h25a9.16,9.16,0,0,0,9.16-9.16V20.19A9.16,9.16,0,0,0,48.49,11ZM41.24,3.31h4V8.57h-4Zm-7.1,0h4V8.57h-4ZM27,3.31h4V8.57H27ZM53.65,46.84a5.79,5.79,0,0,1-.06.83,5.17,5.17,0,0,1-2.65,3.71,5.06,5.06,0,0,1-2.45.62h-25a5.16,5.16,0,0,1-5.08-4.23,4.73,4.73,0,0,1-.08-.93V20.19A5.17,5.17,0,0,1,23.51,15h25a5.17,5.17,0,0,1,5.17,5.16V46.84Z"/></svg>