<?xml version="1.0" encoding="utf-8"?>
<!-- Generator: Adobe Illustrator 22.0.1, SVG Export Plug-In . SVG Version: 6.00 Build 0)  -->
<svg version="1.1" id="Layer_1" xmlns="http://www.w3.org/2000/svg" xmlns:xlink="http://www.w3.org/1999/xlink" x="0px" y="0px"
	 viewBox="0 0 72 56" style="enable-background:new 0 0 72 56;" xml:space="preserve">
<path d="M37.3,35.7v-6.3h6.6C43.2,32.6,40.5,35.2,37.3,35.7z M39.3,26.6h4.6c-0.2-1.2-0.6-2.3-1.3-3.3L39.3,26.6z M34.4,35.7v-6.2
	h-6.3C28.8,32.6,31.4,35.1,34.4,35.7z M37.3,0v7.5c4.6,0.3,8.8,2.1,12.1,5l5.4-5.4C50,3,43.9,0.3,37.3,0z M56.7,9.2l-5.4,5.4
	c2.8,3.3,4.6,7.4,4.9,12H64C63.6,19.9,61,13.8,56.7,9.2z M28.1,26.6h6.3V20C31.2,20.6,28.6,23.2,28.1,26.6z M37.3,10.4V17
	c2.1,0.2,3.8,1,5.4,2.2l4.7-4.7C44.5,12.2,41.1,10.7,37.3,10.4z M37.3,19.9v4.6l3.3-3.3C39.6,20.6,38.6,20.1,37.3,19.9z M15.7,26.6
	c0.6-10.1,8.6-18.3,18.7-19V0C20.1,0.8,8.7,12.3,8,26.6H15.7z M34.4,48.1c-9.9-0.7-17.9-8.7-18.7-18.6H8C8.7,43.7,20.1,55.2,34.4,56
	V48.1z M56.2,29.4c-0.8,10-8.9,18-19,18.6V56c14.5-0.7,26-12.2,26.7-26.6H56.2z M34.4,45.2v-6.6c-4.8-0.7-8.4-4.4-9.2-9.1h-6.6
	C19.4,37.8,26,44.5,34.4,45.2z M18.6,26.6h6.6c0.6-4.9,4.4-8.8,9.2-9.5v-6.6C26,11.2,19.2,18,18.6,26.6z M53.4,29.4h-6.6
	c-0.7,4.8-4.5,8.6-9.5,9.2v6.6C45.8,44.6,52.6,37.9,53.4,29.4z M44.7,21.3c1.1,1.5,1.9,3.3,2.1,5.3h6.6c-0.3-3.8-1.7-7.2-4.1-10
	L44.7,21.3z"/>
</svg>
