<svg id="Layer_1" data-name="Layer 1" xmlns="http://www.w3.org/2000/svg" viewBox="0 0 72 56"><title>recycle</title><path d="M24.42,30.55,27,32.1c.42,0,.64-.18.64-.53a2.3,2.3,0,0,0-.3-.94l-5.6-10.51-12.39.3a.78.78,0,0,0-.84.87c0,.13.18.3.53.53l2.57,1.55L8.84,27.6a6.15,6.15,0,0,0-1.13,3A4.91,4.91,0,0,0,8.46,33l8.43,14.7a12.58,12.58,0,0,1-.3-2.64A8,8,0,0,1,18,40.64l6.43-10.09Z"/><path d="M27.67,22,34.62,11.2q-3.9-8.88-8.28-8.88c-1.76,0-2.94.49-3.55,1.47L16.21,14.3,27.67,22Z"/><path d="M22,51.15H35.41V37.2H22.49a47.41,47.41,0,0,0-3,4.61,8.66,8.66,0,0,0-1,3.93q0,5.41,3.48,5.41Z"/><path d="M49.63,19.4l6-10a2.22,2.22,0,0,0,.3-1.1c0-.45-.15-.68-.45-.68a2.53,2.53,0,0,1-.61.23L52.12,9,49.63,4.09Q48,.77,43,.77H27.44a12.15,12.15,0,0,1,3.85,1.7q2.39,1.89,4.88,7.1l3.1,6.5L37,17.17a.6.6,0,0,0-.34.61c0,.37.24.59.72.64l12.29,1Z"/><path d="M55.6,49.07l8.69-15.8a9.69,9.69,0,0,1-4.19,2.95,17.27,17.27,0,0,1-5.18.61H45.24v-2q0-1.17-.57-1.17a.65.65,0,0,0-.6.3L38,44.57l6.35,9.76c.48.73.89,1,1.24.86s.53-.28.53-.56V51.3h5.37a4.33,4.33,0,0,0,4.16-2.23Z"/><path d="M51.82,34.82H57.6A6.91,6.91,0,0,0,61.91,33q2.39-1.89,2.38-4a3.47,3.47,0,0,0-.64-1.93l-6.88-10.5L44.94,23.45l6.88,11.37Z"/></svg>