<svg id="Layer_1" data-name="Layer 1" xmlns="http://www.w3.org/2000/svg" viewBox="0 0 72 56"><title>ribbon</title><path d="M49,30.91l-.41.26a1.07,1.07,0,0,0-.33.34l-1.7,2.67a3.06,3.06,0,0,1-2.41,1.39L41,35.7a1.16,1.16,0,0,0-.45.12l-.45.23L36.9,43l4.35,9.64a1.37,1.37,0,0,0,2.37.22l3.31-4.75c.37-.51.85-.77,1.17-.58l6.32.22a1.38,1.38,0,0,0,1.3-1.94Z"/><path d="M36.3,37.63a3,3,0,0,1-1.39-.34l-.79-.41-2-1.05a1.21,1.21,0,0,0-.45-.12l-3.16-.14a3,3,0,0,1-2.42-1.39l-1.7-2.67a1,1,0,0,0-.33-.33l-.87-.56L16.28,45.86a1.38,1.38,0,0,0,1.25,1.94h0l6.31-.22h.05a1.38,1.38,0,0,1,1.13.59l3.3,4.74a1.37,1.37,0,0,0,2.38-.22L36,41.06l1.7-3.76h0A3.33,3.33,0,0,1,36.3,37.63Z"/><path d="M51.42,15.8a2.73,2.73,0,0,1-.3-1.15L51,11.5a1.37,1.37,0,0,0-.64-1.1L47.67,8.7a2.56,2.56,0,0,1-.83-.84l-1.7-2.67A1.38,1.38,0,0,0,44,4.56l-3.16-.14a2.74,2.74,0,0,1-1.15-.31L36.92,2.65a1.42,1.42,0,0,0-.63-.15,1.39,1.39,0,0,0-.63.15L32.85,4.11a2.74,2.74,0,0,1-1.15.31l-3.16.14a1.36,1.36,0,0,0-1.1.63l-1.7,2.67a2.59,2.59,0,0,1-.84.84l-2.67,1.7a1.36,1.36,0,0,0-.63,1.1l-.14,3.16a2.66,2.66,0,0,1-.31,1.14l-1.46,2.82a1.4,1.4,0,0,0,0,1.26l1.46,2.81a2.74,2.74,0,0,1,.31,1.15L21.6,27a1.38,1.38,0,0,0,.63,1.1l.2.12.7.45.7.44,1.07.68a2.59,2.59,0,0,1,.84.84l1.7,2.67a1.36,1.36,0,0,0,1.1.63l3.16.14a2.74,2.74,0,0,1,1.15.31l.17.09,2.63,1.37a1.42,1.42,0,0,0,.63.15,1.36,1.36,0,0,0,.63-.15l1.86-1,1-.49.21-.1a3,3,0,0,1,.93-.21h.07L44,33.93a1.37,1.37,0,0,0,1.1-.64l1.7-2.67a2.69,2.69,0,0,1,.84-.84l.6-.38,2.06-1.31A1.37,1.37,0,0,0,51,27l.14-3.16a2.73,2.73,0,0,1,.3-1.15l1.46-2.81a1.34,1.34,0,0,0,0-1.26Z"/></svg>