<svg id="Layer_1" data-name="Layer 1" xmlns="http://www.w3.org/2000/svg" viewBox="0 0 72 56"><title>road-barricade</title><polygon points="52.7 39.8 19.61 39.8 19.61 33.91 11.91 33.91 11.91 51.6 19.61 51.6 19.61 45.6 52.7 45.6 52.7 52 60.39 52 60.39 34.3 52.7 34.3 52.7 39.8"/><polygon points="33.3 12.01 23.21 12.01 11.13 31.21 21.22 31.21 33.3 12.01"/><polygon points="35.22 31.21 47.3 12.01 38.18 12.01 26.1 31.21 35.22 31.21"/><path d="M66.51,12,54.43,31.21H66.16c1.86,0,2.23-1,2.23-2.5V12Z"/><polygon points="49.55 31.21 61.63 12.01 52.18 12.01 40.1 31.21 49.55 31.21"/><path d="M5.64,12s-2-.3-2,2.17v17H6.25L18.33,12Z"/></svg>