<svg id="Layer_1" data-name="Layer 1" xmlns="http://www.w3.org/2000/svg" viewBox="0 0 72 56"><defs><style>.cls-1{fill:#010101;}</style></defs><title>satellite</title><path class="cls-1" d="M52.67,17.21l-1.34-1.34H54L48.13,10v2.7l-1.34-1.34a2.31,2.31,0,0,0-3.26,0L33.22,21.64a2.31,2.31,0,0,0,0,3.26l1.41,1.41a7.19,7.19,0,0,0-.92.78l-.3.31a10.86,10.86,0,0,0-13.6,1.43l6.32,6.31-.1.1c-1.56,1.56-2.21,3.43-1.46,4.19s2.63.1,4.19-1.46l.1-.1,6.31,6.32a10.86,10.86,0,0,0,1.43-13.6l.32-.3a8,8,0,0,0,.77-.92l1.41,1.41a2.31,2.31,0,0,0,3.26,0L52.67,20.47A2.31,2.31,0,0,0,52.67,17.21Z"/><rect class="cls-1" x="25.68" y="4.99" width="8.93" height="14.39" transform="translate(0.22 24.88) rotate(-45)"/><rect class="cls-1" x="47.35" y="26.66" width="8.93" height="14.39" transform="translate(-8.76 46.56) rotate(-45)"/><path class="cls-1" d="M27.74,50.56a14.32,14.32,0,0,1-14.3-14.3h-1.5a15.82,15.82,0,0,0,15.8,15.8"/><path class="cls-1" d="M16.24,36.26H14.73a13,13,0,0,0,13,13V47.76A11.51,11.51,0,0,1,16.24,36.26Z"/><path class="cls-1" d="M21.78,42.22a8.4,8.4,0,0,1-2.47-6h-1.5a9.94,9.94,0,0,0,9.93,9.93h0v-1.5h0A8.4,8.4,0,0,1,21.78,42.22Z"/><path class="cls-1" d="M22.1,36.26H20.59a7.16,7.16,0,0,0,7.15,7.15V41.9A5.65,5.65,0,0,1,22.1,36.26Z"/></svg>