<svg id="Layer_1" data-name="Layer 1" xmlns="http://www.w3.org/2000/svg" viewBox="0 0 72 56"><defs><style>.cls-1{fill:#010002;}</style></defs><title>ship-front</title><path class="cls-1" d="M33.71,13.27l-8.35,6.07.52-5.91,1.49-.85.66-2.5,2.75-.49V7c0-.67,2.34-1.21,5.22-1.21s5.22.54,5.22,1.21V9.6l2.56.65.85,2.33,1.48.94.52,5.81-8.34-6.06A4.18,4.18,0,0,0,33.71,13.27ZM22,27a4.16,4.16,0,0,1,1.42-4.35l1.95-1.42,8.35-6.07a3.85,3.85,0,0,1,1.69-.6V34.8a.6.6,0,0,0,1.2,0V14.56a3.61,3.61,0,0,1,1.69.6l8.34,6.06,2,1.43A4.16,4.16,0,0,1,50,27L45.2,39.22a3.31,3.31,0,0,1-1.24.27c-1.62,0-2.69-1-3.54-3.05l0-.08s0,0,0,0h0a.41.41,0,0,0-.71,0,.76.76,0,0,0-.06.16c-.86,2.09-2,3-3.6,3h0c-1.67,0-2.76-.94-3.62-3.06,0,0,0,0,0-.08s0,0,0,0h0a.45.45,0,0,0-.36-.21.42.42,0,0,0-.35.21.44.44,0,0,0-.06.16c-.85,2-1.92,3-3.51,3a3.4,3.4,0,0,1-1.22-.26Zm16.46-4.8a.95.95,0,1,0,.95-.95A.95.95,0,0,0,38.45,22.2Zm-6.72,0a.95.95,0,0,0,1.89,0,.95.95,0,1,0-1.89,0ZM60,41.85h-.07V50.2H12V41.85h0c1.66,0,2.75-.94,3.61-3l.06-.16h0a.47.47,0,0,1,.35-.21.43.43,0,0,1,.36.21h0s0,0,0,.05,0,0,0,.09c.86,2.11,1.95,3.05,3.61,3.05h0c1.65,0,2.75-.94,3.61-3a.44.44,0,0,1,.06-.16h0a.41.41,0,0,1,.35-.21.44.44,0,0,1,.35.21h0s0,0,0,.05a.36.36,0,0,1,0,.09c.85,2.06,1.92,3,3.52,3s2.66-1,3.51-3a.67.67,0,0,1,.06-.15h0a.43.43,0,0,1,.35-.21.45.45,0,0,1,.36.21h0a.05.05,0,0,0,0,0s0,0,0,.09c.86,2.11,2,3.05,3.62,3.05h0c1.65,0,2.74-.94,3.6-3,0-.06,0-.1.06-.15h0a.43.43,0,0,1,.35-.21.42.42,0,0,1,.36.21h0l0,0s0,0,0,.09c.85,2.08,1.92,3,3.55,3s2.67-1,3.53-3a.38.38,0,0,1,.06-.16h0a.4.4,0,0,1,.7,0h0s0,0,0,0a.69.69,0,0,1,0,.08c.86,2.11,2,3.05,3.62,3.05h0c1.66,0,2.75-.93,3.61-3a.59.59,0,0,1,.06-.16h0a.43.43,0,0,1,.36-.21.4.4,0,0,1,.35.21h0l0,0a.69.69,0,0,1,0,.08C57.25,40.91,58.34,41.85,60,41.85Z"/></svg>