<svg id="Layer_2" data-name="Layer 2" xmlns="http://www.w3.org/2000/svg" viewBox="0 0 45.35 32.79"><defs><style>.cls-1{fill-rule:evenodd;}</style></defs><path class="cls-1" d="M7.79,28.4a20,20,0,0,1,5.9-14.25,1.24,1.24,0,0,0,0-1.78,1.26,1.26,0,0,0-1.78,0,22.66,22.66,0,0,0,0,32.05,1.25,1.25,0,0,0,.89.37,1.22,1.22,0,0,0,.89-.37,1.24,1.24,0,0,0,0-1.78A20,20,0,0,1,7.79,28.4" transform="translate(-5.27 -12)"/><path class="cls-1" d="M44,12.37a1.26,1.26,0,0,0-1.78,1.78,20.12,20.12,0,0,1,0,28.49,1.26,1.26,0,0,0,.89,2.15,1.22,1.22,0,0,0,.89-.37,22.63,22.63,0,0,0,0-32.05" transform="translate(-5.27 -12)"/><path class="cls-1" d="M40.4,15.93a1.26,1.26,0,0,0-1.78,1.78,15.08,15.08,0,0,1,0,21.37,1.26,1.26,0,0,0,0,1.78,1.29,1.29,0,0,0,.89.37,1.26,1.26,0,0,0,.89-.37,17.61,17.61,0,0,0,0-24.93" transform="translate(-5.27 -12)"/><path class="cls-1" d="M12.82,28.4a15,15,0,0,1,4.44-10.69,1.26,1.26,0,1,0-1.79-1.78,17.61,17.61,0,0,0,0,24.93,1.26,1.26,0,1,0,1.79-1.78A15,15,0,0,1,12.82,28.4" transform="translate(-5.27 -12)"/><path class="cls-1" d="M38,28.4a10,10,0,0,1-3,7.12,1.26,1.26,0,0,0,0,1.78,1.29,1.29,0,0,0,.89.37,1.27,1.27,0,0,0,.89-.37,12.57,12.57,0,0,0,0-17.81,1.26,1.26,0,0,0-1.78,1.78,10,10,0,0,1,3,7.13" transform="translate(-5.27 -12)"/><path class="cls-1" d="M19,37.3a1.26,1.26,0,0,0,.89.37,1.29,1.29,0,0,0,.89-.37,1.26,1.26,0,0,0,0-1.78,10.06,10.06,0,0,1,0-14.25A1.26,1.26,0,0,0,19,19.49,12.57,12.57,0,0,0,19,37.3" transform="translate(-5.27 -12)"/><circle cx="22.94" cy="16.46" r="7.34"/></svg>