<svg id="Layer_2" data-name="Layer 2" xmlns="http://www.w3.org/2000/svg" viewBox="0 0 29 54.39"><path d="M29,1.25a.87.87,0,0,0-1.1,0c-2.89,2.38-4.17,5.18-4.51,10h10C33.11,6.43,31.84,3.71,29,1.25Z" transform="translate(-14 -1.06)"/><path d="M14,51.88l.68-3.31a3.94,3.94,0,0,1,1-2l4.59-5.18a5.93,5.93,0,0,0,1.53-3.65l.42-8a16.11,16.11,0,0,1,5.69-11.47.92.92,0,0,1,1.11,0,16,16,0,0,1,5.69,11.47l.42,8a5.93,5.93,0,0,0,1.53,3.65l4.59,5.18a4.8,4.8,0,0,1,1,2L43,51.88c.18.53-.41,1-.85,1l-7.31.51a1.29,1.29,0,0,0-1.27,1.19h0a.92.92,0,0,1-.85.85h-8.5a.85.85,0,0,1-.85-.85h0a1.3,1.3,0,0,0-1.18-1.28l-7.4-.42C14.37,52.9,14,52.56,14,51.88Z" transform="translate(-14 -1.06)"/><path d="M25.38,27.24a.91.91,0,0,0,1.19-.17,2.28,2.28,0,0,1,1.87-.93,2.25,2.25,0,0,1,1.87.93.76.76,0,0,0,.68.34,1.14,1.14,0,0,0,.51-.17.92.92,0,0,0,.17-1.19,4,4,0,0,0-6.46,0A.92.92,0,0,0,25.38,27.24Z" transform="translate(-14 -1.06)"/><path d="M36.85,37.61A4.57,4.57,0,0,0,38,40.24L39.57,42V19.85a3.55,3.55,0,0,0-.51-1.78L37.7,15.86a.87.87,0,0,0-1.44,0L34.9,18.07a3.13,3.13,0,0,0-.51,1.78v2.47a18.4,18.4,0,0,1,2,7.39Z" transform="translate(-14 -1.06)"/><path d="M20,37.61l.43-8a18.6,18.6,0,0,1,2-7.39V19.77A3.68,3.68,0,0,0,22,18l-1.36-2.21a.88.88,0,0,0-1.45,0l-1.27,2.3a3.13,3.13,0,0,0-.51,1.78V42L19,40.24A4,4,0,0,0,20,37.61Z" transform="translate(-14 -1.06)"/><path d="M26.83,17a2.49,2.49,0,0,1,3.23,0,17.47,17.47,0,0,1,3.48,3.91V13H23.34v7.9A17.28,17.28,0,0,1,26.83,17Z" transform="translate(-14 -1.06)"/></svg>