<svg id="Layer_1" data-name="Layer 1" xmlns="http://www.w3.org/2000/svg" viewBox="0 0 72 56"><title>statue-of-liberty</title><path d="M51,51.16a9.59,9.59,0,0,0-1.83-1.29c-.39-.72-2-1.33-2-1.33-.18-.79-1-3.43-1-3.43.38,0,.9-.39.82-.91,0-.19-.48-1.25-.65-1.66a4.35,4.35,0,0,1-.29-2.3s.86,0,1-.25-.19-.36-.19-.36c.28-.11,0-.3,0-.3.21-.16-.33-.38-.06-.76a.25.25,0,0,0,0-.27l10.8.42S47,37,47,36.86A7.76,7.76,0,0,0,47,35.24c.26,0,9.74-2.81,9.74-2.81L46.58,33.82c-.26-.89-1.47-1.74-1.36-1.82l6.51-5.91-7.94,5.08a26.62,26.62,0,0,0-2.69-1c0-.27-.08-8.9-.13-8.53s-1.64,8.46-1.75,8.46a7.47,7.47,0,0,0-3.19.59c-.14-.11-7.24-6.76-6.94-6.27.17.25,5.3,7,5.3,7-.55.07-1.9,1.58-1.9,1.58s-5.57-.35-5.57-.49A11.35,11.35,0,0,1,26.13,31c.61-1.85-.43-6.29-.43-6.61a21.24,21.24,0,0,0-.56-2.56A14.74,14.74,0,0,1,25,19c0-.37.33-1.87.33-2.18s.25-.44.32-.78a15.13,15.13,0,0,1,.2-1.58s-.13-1.55-.12-1.67c0-.4-.64-1.45-.5-1.49,4.83-1.61,3.35-3.88,3.36-4,.35-2.47-2.17-3.64-2-3.84a1.05,1.05,0,0,0,.14-1.12c-.27-.21-.38-.29-.38-.34a1.34,1.34,0,0,0-.6-1c-.73-.36-.92-.59-1-1,0-.18-.32,0-.93,0A5.61,5.61,0,0,0,22,.8a1.32,1.32,0,0,0-.66,1,.83.83,0,0,0-.61.78,6,6,0,0,0-4,3.53c-1.91,2.64,1.44,4.48,1.44,4.48s.23.13.17.27c-.3.77.07.8.13.95a1.61,1.61,0,0,1,.14.8,7.68,7.68,0,0,0-.36,1.35A8.79,8.79,0,0,0,19,15.75c-.18,1,.54,1,.54,1.18,0,.74.24.62.24.74s.12.25.1.34c-.25,1-.78,5-.85,5.18-.8,1.6-.13,5.6,0,6.18a4.68,4.68,0,0,0,.39.9,3.4,3.4,0,0,1,0,1.24c0,.23.11,3.11.11,3.11-.26.2-1.46,1-1.69,1.2-.62.47-.78,1-1,1.15a6.49,6.49,0,0,0-2.38,2.71c-.64,2.42.68,2.57.81,2.84.65,1.34,2.24,1.14,2.13,1.22s-.75.48-.9.88a.23.23,0,0,0,.21.34,3.44,3.44,0,0,0-1,3.23c.36.68,1,.88,1,1.08.1.79,1.11.59,1,.76a6.93,6.93,0,0,0-.38,1.88c0,.6.33.59.33.59a6.89,6.89,0,0,0-1.25,2.17c-.18,1,.19,1,.48,1.33H53.77c-.34-.5-.6-2.43-1.15-3.1C52.62,52.89,51.14,51.37,51,51.16ZM28.35,33.88s-.42-.5-.24-.42c.59.25,3.53.82,3.53.82a11.13,11.13,0,0,0-.42,1.47,11.52,11.52,0,0,0-2.14-.07,4.61,4.61,0,0,1-.66-.62s.1,0,.1-.18C28.52,34.88,28.45,34.53,28.35,33.88ZM31.64,40s-.33.37-.49.25c0,0-.23,0-1.21-1.05a6.07,6.07,0,0,0-.84-.48s0-.59-.22-.73c0,0,.06-.47-.19-.56,0,0-.09-.48,0-.45s2.44.19,2.44.19.13.19.06.3-.32,1.94.45,1.94C31.64,39.37,31.73,39.83,31.64,40Z"/></svg>