<svg id="Layer_1" data-name="Layer 1" xmlns="http://www.w3.org/2000/svg" viewBox="0 0 72 56"><title>sub</title><path d="M63.14,32.88a1,1,0,0,0,0-.16c-1.07-3.54-3.63-6-6.6-6H43.67v-6a1.38,1.38,0,0,0-.27-.84.7.7,0,0,0-.64-.3l-5.4.62v-11C37.36,8.53,37,8,36.53,8s-.84.52-.84,1.15V20.32l-2.53.28V12c0-.63-.37-1.14-.84-1.14s-.84.51-.84,1.14V20.8L30.15,21a1.06,1.06,0,0,0-.77,1.14v4.6H28a4.41,4.41,0,0,0-2.07.52L19.5,30.59V27.84a1.17,1.17,0,0,0-.57-1.09l-3.16-1.44a.64.64,0,0,0-.75.16,1.3,1.3,0,0,0-.35.93v6.72L13.1,34A1.19,1.19,0,0,0,12.57,35v.29h-1v-4.6c0-.64-.38-1.15-.84-1.15s-.84.51-.84,1.15v4.6H9.2c-.46,0-.84.51-.84,1.14s.38,1.15.84,1.15h.69v4.6c0,.63.38,1.15.84,1.15s.84-.52.84-1.15V37.6h1v.29A1.2,1.2,0,0,0,13.1,39l1.57.82v7.06a1.32,1.32,0,0,0,.35.93.69.69,0,0,0,.49.22.58.58,0,0,0,.26-.06l3.16-1.44a1.18,1.18,0,0,0,.57-1.09V42.32l6.41,3.37a4.43,4.43,0,0,0,2.07.53H56.49c3.94,0,7.15-4.38,7.15-9.77A12.88,12.88,0,0,0,63.14,32.88Zm-29.51,6a2.94,2.94,0,1,1,2.94-2.94A2.94,2.94,0,0,1,33.63,38.86Zm9,0a2.94,2.94,0,1,1,2.94-2.94A2.94,2.94,0,0,1,42.68,38.86Zm9.48,0a2.94,2.94,0,1,1,3-2.94A2.94,2.94,0,0,1,52.16,38.86Z"/></svg>