<svg id="Layer_1" data-name="Layer 1" xmlns="http://www.w3.org/2000/svg" viewBox="0 0 72 56"><title>tables</title><path d="M47.67,16.27H14.22a2,2,0,0,0-2,2V49.32a2,2,0,0,0,2,2H47.67a2,2,0,0,0,2-2V18.25A2,2,0,0,0,47.67,16.27ZM19.29,48.93H13.83V44.29h5.46Zm0-5.83H13.83V37.18h5.46Zm0-7.11H13.83V30.46h5.46Zm0-6.71H13.83V24.44h5.46ZM27,48.93H20.48V44.29H27v4.64Zm0-5.83H20.48V37.18H27V43.1ZM27,36H20.48V30.46H27V36Zm0-6.71H20.48V24.44H27v4.84Zm7.11,19.65H28.18V44.29h5.93v4.64Zm0-5.83H28.18V37.18h5.93V43.1Zm0-7.11H28.18V30.46h5.93V36Zm0-6.71H28.18V24.44h5.93v4.84Zm6.71,19.65H35.29V44.29h5.53Zm0-5.83H35.29V37.18h5.53Zm0-7.11H35.29V30.46h5.53Zm0-6.71H35.29V24.44h5.53Zm7.25,19.65H42V44.29h6.06Zm0-5.83H42V37.18h6.06Zm0-7.11H42V30.46h6.06Zm0-6.71H42V24.44h6.06ZM57.78,4.7H24.33a2,2,0,0,0-2,2v8.51h1.59V12.86H29.4v2.33h1.19V12.86H37.1v2.33h1.19V12.86h5.92v2.33H45.4V12.86h5.53V17.7h-.22a3.58,3.58,0,0,1,.15,1v.15h.07v5.53h-.07V25.6h.07v5.93h-.07v1.18h.07v4.65h-.07v2.37h6.92a2,2,0,0,0,2-2V6.68A2,2,0,0,0,57.78,4.7Zm.39,32.66H52.11V32.71h6.06v4.65Zm0-5.83H52.11V25.6h6.06v5.93Zm0-7.11H52.11V18.89h6.06v5.53Zm0-6.72H52.11V12.86h6.06V17.7Z"/></svg>