<svg id="Layer_1" data-name="Layer 1" xmlns="http://www.w3.org/2000/svg" viewBox="0 0 72 56"><title>tank</title><path d="M39.18,21.67A6.47,6.47,0,0,0,39,20H64.08v-3h-27a6.37,6.37,0,0,0-3.28-1.59V13.92s.06,0,.06-.07a3.19,3.19,0,0,0-3.2-3.15H17.38V16A6.32,6.32,0,0,0,14,21.67s0,0,0,.07a9.71,9.71,0,0,1,1.21-.07Z"/><path d="M57.84,39.2v-.05a7.22,7.22,0,0,0,6-7.1V32a7.23,7.23,0,0,0-7.19-7.3H15.23A7.34,7.34,0,0,0,7.92,32v.06A7.22,7.22,0,0,0,14,39.15v.05a6.17,6.17,0,0,0,6.16,6.1H51.8a6,6,0,0,0,6-6.1ZM41.09,42.13a3.07,3.07,0,1,1,3.08-3.07A3.06,3.06,0,0,1,41.09,42.13ZM27.62,39.06a3.08,3.08,0,1,1,3.07,3.07A3.07,3.07,0,0,1,27.62,39.06Zm-10.4,0a3.08,3.08,0,1,1,3.07,3.07A3.07,3.07,0,0,1,17.22,39.06Zm34.27,3.07a3.07,3.07,0,1,1,3.08-3.07A3.06,3.06,0,0,1,51.49,42.13Z"/></svg>