<svg id="Layer_1" data-name="Layer 1" xmlns="http://www.w3.org/2000/svg" viewBox="0 0 72 56"><defs><style>.cls-1{fill:none;}</style></defs><title>textile</title><line class="cls-1" x1="35.95" y1="7.01" x2="56.94" y2="28"/><polygon points="56.99 45.91 59.93 42.96 56.95 39.98 60 36.93 56.99 33.92 59.97 30.93 58.18 29.15 54.03 33.29 51.05 30.31 48.04 33.33 44.99 30.28 42.01 33.26 39.06 30.31 36.11 33.26 30.74 27.89 31.89 26.83 33.72 25 30.72 22 33.58 19.15 30.63 16.2 33.71 13.12 30.63 10.04 34.8 5.87 32.94 4 29.87 7.08 26.79 4 23.84 6.95 20.98 4.09 17.98 7.09 14.98 4.09 15.04 4.16 12.06 7.14 15.01 10.09 12.07 13.04 15.05 16.02 12 19.07 15.01 22.08 12.03 25.07 15.01 28.05 12.01 31.06 15.08 34.13 12 37.22 14.95 40.16 12.1 43.02 15.09 46.02 12.09 49.02 12.16 48.95 15.14 51.94 18.09 48.99 21.04 51.93 24.02 48.95 27.07 52 30.08 48.99 33.07 51.97 36.05 48.99 39.06 51.99 42.13 48.92 45.22 52 48.16 49.05 51.02 51.91 54.02 48.91 57.02 51.91 56.95 51.84 59.94 48.86 56.99 45.91"/><polygon points="35.98 7.03 32.97 10.04 36.05 13.12 32.97 16.2 35.92 19.15 33.06 22 36.06 25 33.06 28 33.13 27.94 36.11 30.92 39.06 27.97 42.01 30.91 44.99 27.93 48.04 30.98 51.05 27.97 54.03 30.95 57.02 27.97 35.98 7.03"/></svg>