<svg id="Layer_1" data-name="Layer 1" xmlns="http://www.w3.org/2000/svg" viewBox="0 0 72 56"><defs><style>.cls-1{fill:#010002;}</style></defs><title>tools</title><path class="cls-1" d="M13.32,44.31a4.5,4.5,0,0,0,6.36,6.36L34.44,35.91l-6.36-6.36Z"/><polygon class="cls-1" points="50.2 16.96 56.63 13.63 60 7.13 56.86 3.99 50.36 7.36 47.03 13.78 39.21 21.61 42.38 24.79 50.2 16.96"/><path class="cls-1" d="M51.61,34,51,34a8.9,8.9,0,0,0-3.11.58L29.45,16.09A8.9,8.9,0,0,0,30,13l-.06-.6A8.9,8.9,0,0,0,17.19,4.89l6,6a3,3,0,0,1,.68,1.08A3,3,0,0,1,21,16a2.92,2.92,0,0,1-1-.21,3.15,3.15,0,0,1-1.08-.67l-6-6a8.9,8.9,0,0,0,7.49,12.78L21,22a8.9,8.9,0,0,0,3.11-.58L42.6,39.84A8.9,8.9,0,0,0,42,43l.06.6A9,9,0,0,0,51,51.94a8.72,8.72,0,0,0,3.85-.9l-6-6A3.08,3.08,0,0,1,48.21,44,3,3,0,0,1,51,40a2.92,2.92,0,0,1,1,.21,2.72,2.72,0,0,1,1.08.67l6,6A8.9,8.9,0,0,0,51.61,34Z"/></svg>