<svg id="Layer_1" data-name="Layer 1" xmlns="http://www.w3.org/2000/svg" viewBox="0 0 72 56"><title>train</title><path d="M52.82,20.74,39.31,18.49a24.46,24.46,0,0,0-6.62,0L19.18,20.74a4.1,4.1,0,0,0-3.3,3.91V34.71a3.36,3.36,0,0,0,3.35,3.35v3.36L24.6,44.1,19.23,54.83H52.77L47.4,44.1l5.37-2.68V38.06a3.36,3.36,0,0,0,3.35-3.35V24.65A4.1,4.1,0,0,0,52.82,20.74ZM36,21.29a3.36,3.36,0,1,1-3.35,3.36A3.35,3.35,0,0,1,36,21.29ZM29.29,41.42H42.71l1.68,3.35H27.61ZM47.74,51.48H24.26l1.68-3.36H46.06Z"/><path d="M36,15a17.93,17.93,0,0,1,3.29.27l13.48,2.7V11.23c0-3.7-7.51-6.71-16.77-6.71s-16.77,3-16.77,6.71v6.71l13.48-2.7A17.93,17.93,0,0,1,36,15ZM39.35,8c6.09.54,9.56,2.43,10.07,3.32v2.5L40,12l-.6-.08Zm-6.7,3.84-.6.08-9.47,1.9v-2.5c.51-.89,4-2.78,10.07-3.32Z"/><circle cx="27.61" cy="2.84" r="1.68"/><circle cx="44.39" cy="2.84" r="1.68"/></svg>