<svg id="Layer_1" data-name="Layer 1" xmlns="http://www.w3.org/2000/svg" viewBox="0 0 72 56"><title>truck-front</title><path d="M55.81,44.35V36.41a3.09,3.09,0,0,0-3.09-3.09h-.81v-29a.8.8,0,0,0-.34-.65l-2-1.29A.77.77,0,0,0,48.41,3v9.32l-.59-1.58a5.42,5.42,0,0,0-5.07-3.53H29.24a5.43,5.43,0,0,0-5.09,3.56l-.56,1.55V3a.77.77,0,0,0-1.19-.64l-2,1.29a.8.8,0,0,0-.34.65v29h-.81a3.09,3.09,0,0,0-3.09,3.09v7.94H14.87a.77.77,0,0,0-.77.77V49.4a.77.77,0,0,0,.77.77H18.2v2a1.55,1.55,0,0,0,1.55,1.54h4.1a1.54,1.54,0,0,0,1.54-1.54v-2H46.61v2a1.54,1.54,0,0,0,1.54,1.54h4.1a1.55,1.55,0,0,0,1.55-1.54v-2h3.33a.77.77,0,0,0,.77-.77V45.12a.77.77,0,0,0-.77-.77ZM24.62,16.63H47.38v7.62H24.62Zm-.53,25.56H21.45A1.46,1.46,0,0,1,20,40.73v0a1.46,1.46,0,0,1,1.46-1.46h2.64a1.46,1.46,0,0,1,1.46,1.46v0A1.46,1.46,0,0,1,24.09,42.19Zm17.16.43H30.75a1.54,1.54,0,0,1-1.55-1.55V31.28a1.54,1.54,0,0,1,1.55-1.54h10.5a1.54,1.54,0,0,1,1.55,1.54v9.79A1.54,1.54,0,0,1,41.25,42.62Zm9.3-.43H47.91a1.46,1.46,0,0,1-1.46-1.46v0a1.46,1.46,0,0,1,1.46-1.46h2.64A1.46,1.46,0,0,1,52,40.69v0A1.46,1.46,0,0,1,50.55,42.19ZM41,35.39H31a.76.76,0,0,1-.77-.76v0a.76.76,0,0,1,.77-.76H41a.76.76,0,0,1,.76.76v0A.76.76,0,0,1,41,35.39Zm0-3.09H31a.76.76,0,0,1-.77-.76v0a.76.76,0,0,1,.77-.76H41a.76.76,0,0,1,.76.76v0A.76.76,0,0,1,41,32.3Zm0,9.27H31a.76.76,0,0,1-.77-.76v0A.76.76,0,0,1,31,40H41a.76.76,0,0,1,.76.76v0A.76.76,0,0,1,41,41.57Zm0-3.09H31a.76.76,0,0,1-.77-.76v0a.76.76,0,0,1,.77-.76H41a.76.76,0,0,1,.76.76v0A.76.76,0,0,1,41,38.48Z"/></svg>