<svg id="Layer_1" data-name="Layer 1" xmlns="http://www.w3.org/2000/svg" viewBox="0 0 72 56"><defs><style>.cls-1{fill:#010002;}</style></defs><title>usd</title><path class="cls-1" d="M50.17,28.91a20.68,20.68,0,0,0-7.51-3.19L40,25.15v-11a.33.33,0,0,0,.23.12.1.1,0,0,1,.11.11,6,6,0,0,1,3.53,5.47h8.77c-.16-4.56-1.86-8-5.13-10.48A17.65,17.65,0,0,0,40,6.15V0H32V5.92a15.94,15.94,0,0,0-9,3.64,12.55,12.55,0,0,0-4.33,9.79q0,6.38,4.44,9.45C24.67,29.93,27.63,31,32,32V43.82a7.21,7.21,0,0,1-3.64-2.16,8.05,8.05,0,0,1-1.71-4.33H18a12.77,12.77,0,0,0,4.89,10.59A19,19,0,0,0,32,51.45V56H40V51.56a18.06,18.06,0,0,0,9.45-3.76,12.74,12.74,0,0,0,4.55-10Q54,32,50.17,28.91ZM32,23.22a14.32,14.32,0,0,1-2.73-1,3.76,3.76,0,0,1-2.17-3.53,4.44,4.44,0,0,1,2.17-4A11.93,11.93,0,0,1,32,13.54Zm9.45,20.37a5.81,5.81,0,0,1-1.37.35V33.8a16.67,16.67,0,0,1,3.3,1.37,3.89,3.89,0,0,1,1.94,3.42Q45.28,42.22,41.41,43.59Z"/></svg>