<svg id="Layer_1" data-name="Layer 1" xmlns="http://www.w3.org/2000/svg" viewBox="0 0 72 56"><defs><style>.cls-1{fill:#010002;}</style></defs><title>users</title><path class="cls-1" d="M18.87,28.44c.2.21.41.4.63.6a10.59,10.59,0,0,0,14.15,0c.22-.2.43-.39.62-.6s.4-.43.58-.65a10.64,10.64,0,1,0-16.55,0C18.48,28,18.68,28.23,18.87,28.44Z"/><path class="cls-1" d="M41.63,25.76c.17.18.35.35.53.52a9,9,0,0,0,12.05,0c.19-.17.36-.34.53-.52a6.41,6.41,0,0,0,.49-.55,9,9,0,0,0-7-14.73,9,9,0,0,0-7,14.73C41.3,25.4,41.46,25.59,41.63,25.76Z"/><path class="cls-1" d="M9.49,45.52H43.66A1.57,1.57,0,0,0,44.83,45a1.24,1.24,0,0,0,.31-1,18.77,18.77,0,0,0-9.9-14.22,12.25,12.25,0,0,1-17.33,0A18.77,18.77,0,0,0,8,44a1.25,1.25,0,0,0,.31,1A1.57,1.57,0,0,0,9.49,45.52Z"/><path class="cls-1" d="M9.49,45.52H43.66A1.57,1.57,0,0,0,44.83,45a1.24,1.24,0,0,0,.31-1,18.77,18.77,0,0,0-9.9-14.22,12.25,12.25,0,0,1-17.33,0A18.77,18.77,0,0,0,8,44a1.25,1.25,0,0,0,.31,1A1.57,1.57,0,0,0,9.49,45.52Z"/><path class="cls-1" d="M64,39a16,16,0,0,0-8.42-12.11,10.41,10.41,0,0,1-14.76,0,16.59,16.59,0,0,0-3.13,2.16,18.81,18.81,0,0,1,8.26,11.24H62.73a1.33,1.33,0,0,0,1-.44A1.06,1.06,0,0,0,64,39Z"/></svg>