<svg id="Layer_1" data-name="Layer 1" xmlns="http://www.w3.org/2000/svg" viewBox="0 0 72 56"><title>white-house</title><path d="M69.44,43V28.86l.28-.44v-.23h-.14V27.5l1.26-1v-.27h-.78v-1h-.29v-1.2l.29-.19v-.21h-15v-.4h-.51v-.41H52.82V21l.51-.41V20.1H50.64v.48l.52.41v1.86H49.39v.41h-.51v.4h-.29l.33-.46v-.43h.21v-.29l-1-.39-.4-1.34v-.66l.53-.59H41.87l-5.74-2.36V13.89H38.7v-1.8H36.13v-.42h-.26v5.47L30.13,19.5H23.69l.53.59v.66l-.4,1.34-.95.39v.29h.21v.43l.33.46h-.29v-.4h-.51v-.41H20.84V21l.52-.41V20.1H18.67v.48l.51.41v1.86H17.42v.41h-.51v.4h-15v.21l.29.19v1.2H1.94v1H1.16v.27l1.26,1v.69H2.28v.23l.28.44V43H0v1.35H72V43Zm-17-14.3V32.9h-2.6V28.68Zm-2.6,6.72h2.6v4.22h-2.6Zm14.41-6.72h2.59V32.9H64.27Zm0,6.72h2.59v4.22H64.27Zm-7.2-6.72h2.59V32.9H57.07Zm0,6.72h2.59v4.22H57.07ZM22.14,28.68V32.9h-2.6V28.68Zm-2.6,6.72h2.6v4.22h-2.6Zm-7.2-6.72h2.59V32.9H12.34Zm0,6.72h2.59v4.22H12.34Zm-7.2-6.72H7.73V32.9H5.14Zm0,6.72H7.73v4.22H5.14Z"/></svg>